<svg width="40" height="40" viewBox="0 0 40 40" fill="none" xmlns="http://www.w3.org/2000/svg">
<g clip-path="url(#clip0_18_2)">
<path d="M23.1363 2.83009C20.886 2.34305 18.5684 2.30369 16.3157 2.71424C14.0631 3.12479 11.9195 3.97722 10.0075 5.22286C6.14586 7.73854 3.46157 11.7031 2.54509 16.2445C1.62861 20.7858 2.55502 25.5319 5.12052 29.4386C7.68601 33.3453 11.6804 36.0927 16.2251 37.0763C20.7697 38.0599 25.4923 37.1992 29.3539 34.6835C33.2155 32.1678 35.8998 28.2033 36.8163 23.6619C37.7327 19.1206 36.8063 14.3745 34.2408 10.4678C31.6753 6.56107 27.6809 3.81371 23.1363 2.83009Z" fill="#FF6C37"/>
<path d="M14.7712 20.6412C14.7768 20.6556 14.7873 20.6677 14.8007 20.6753C14.8142 20.6829 14.8299 20.6855 14.845 20.6827L17.6776 20.3201L16.59 19.0291L14.799 20.5591C14.7851 20.5669 14.7746 20.5795 14.7694 20.5947C14.7643 20.6098 14.7649 20.6264 14.7712 20.6412ZM28.6901 9.77227C28.301 9.73884 27.9106 9.79327 27.5478 9.93152C27.1849 10.0698 26.8588 10.2883 26.5935 10.5711C26.3282 10.8539 26.1304 11.1936 26.0148 11.5653C25.8992 11.937 25.8686 12.3312 25.9254 12.7187C25.9822 13.1063 26.1249 13.4774 26.343 13.8046C26.561 14.1319 26.8489 14.407 27.1853 14.6096C27.5217 14.8123 27.8982 14.9373 28.2869 14.9755C28.6756 15.0137 29.0667 14.9641 29.4313 14.8303L27.7889 12.9077C27.7701 12.8857 27.7557 12.8603 27.7466 12.8328C27.7375 12.8054 27.7339 12.7765 27.736 12.7479C27.738 12.7192 27.7457 12.6913 27.7585 12.6657C27.7714 12.6402 27.7892 12.6175 27.8109 12.599L30.2859 10.4867C29.8488 10.0733 29.2854 9.82182 28.6901 9.77227Z" fill="black"/>
<path d="M30.5817 10.8129L28.2624 12.787L29.839 14.6326C30.1534 14.4474 30.4245 14.1974 30.6348 13.8991C30.8452 13.6007 30.9901 13.2605 31.0601 12.9004C31.1301 12.5404 31.1237 12.1685 31.0413 11.8089C30.9589 11.4493 30.8023 11.11 30.5817 10.8129ZM25.9646 14.4272L25.9265 14.4239C25.8816 14.4192 25.8365 14.419 25.7917 14.4233L25.7753 14.4219C25.7263 14.4289 25.6779 14.4394 25.6306 14.4534L25.5923 14.4666C25.5561 14.4781 25.521 14.4927 25.4873 14.5102L25.4473 14.532C25.4026 14.5576 25.3601 14.587 25.3205 14.6199L18.4412 20.4987L19.1799 21.3635L26.406 15.9711C26.4468 15.9407 26.4845 15.9065 26.5186 15.8688L26.5507 15.8331C26.6088 15.759 26.6553 15.6764 26.6888 15.5881C26.6903 15.5674 26.7038 15.5477 26.7107 15.5275C26.7224 15.485 26.7313 15.4417 26.7375 15.398L26.7483 15.2464C26.7506 15.2137 26.7513 15.2038 26.7441 15.1824C26.7235 15.0148 26.6539 14.8564 26.5441 14.7271C26.4343 14.5979 26.2891 14.5037 26.127 14.4565L26.0943 14.4537C26.0517 14.4417 26.0084 14.4329 25.9646 14.4272ZM16.9117 18.7461L18.1366 20.1718L25.0356 14.2782C25.2595 14.0911 25.541 13.9869 25.8351 13.9836C24.7586 13.013 23.501 13.1355 16.9117 18.7461ZM26.7499 16.2542L26.6659 16.3238L19.44 21.7129L20.5138 22.9686C23.5733 20.5004 26.3012 18.1333 26.7499 16.2542ZM8.79121 28.7915C8.79404 28.804 8.80055 28.8154 8.80989 28.8242C8.81924 28.8331 8.83099 28.8389 8.8436 28.841L11.7931 29.3007L10.2499 27.4942L8.81036 28.7229C8.80098 28.7312 8.7942 28.7421 8.79081 28.7543C8.78742 28.7664 8.78756 28.7793 8.79121 28.7915ZM10.5825 27.2121L12.2096 29.1169C12.229 29.1408 12.2559 29.1574 12.2857 29.1639C12.3156 29.1705 12.3467 29.1666 12.3737 29.153C12.4017 29.1417 12.4249 29.1211 12.4391 29.0945C12.4534 29.0679 12.458 29.037 12.4521 29.0071L12.2477 27.7218C12.2344 27.6385 12.2491 27.5535 12.2894 27.4802C12.3298 27.4069 12.3936 27.3496 12.4707 27.3172C15.6536 26.0407 18.2437 24.666 20.1756 23.2371L19.0422 21.9103L16.3866 22.2498L10.5825 27.2121ZM18.6937 21.5083L18.0855 20.7964L17.1143 21.624C17.1073 21.6313 17.103 21.6408 17.1023 21.651C17.1016 21.6611 17.1044 21.6713 17.1103 21.6797C17.1137 21.6893 17.1206 21.6974 17.1295 21.7024C17.1385 21.7075 17.1489 21.709 17.1588 21.7069L18.6936 21.5094L18.6937 21.5083Z" fill="black"/>
<path d="M30.5424 12.2255C30.5353 12.1974 30.5224 12.171 30.5044 12.1482C30.4865 12.1254 30.4639 12.1066 30.4382 12.0931C30.4126 12.0797 30.3844 12.0718 30.3557 12.0701C30.3269 12.0683 30.2982 12.0728 30.2714 12.0831C30.2447 12.0934 30.2205 12.1094 30.2006 12.1299C30.1806 12.1505 30.1654 12.1751 30.1558 12.2022C30.1462 12.2293 30.1426 12.2582 30.1451 12.287C30.1476 12.3158 30.1562 12.3438 30.1703 12.3691C30.2148 12.4788 30.2268 12.5985 30.205 12.7139C30.1831 12.8293 30.1283 12.9354 30.0472 13.0194C30.01 13.0576 29.9897 13.1094 29.9908 13.1632C29.9919 13.217 30.0143 13.2685 30.053 13.3064C30.0918 13.3442 30.1437 13.3652 30.1974 13.3649C30.2511 13.3646 30.3021 13.3429 30.3393 13.3046C30.4734 13.165 30.5638 12.9891 30.5998 12.7978C30.6358 12.6066 30.6158 12.4083 30.5423 12.2266L30.5424 12.2255Z" fill="#FF6C37"/>
</g>
<defs>
<clipPath id="clip0_18_2">
<rect width="35.215" height="34.7998" fill="white" transform="matrix(0.990249 0.085048 -0.0715416 1.00321 3.48964 1)"/>
</clipPath>
</defs>
</svg>
