<svg width="13" height="13" viewBox="0 0 13 13" fill="none" xmlns="http://www.w3.org/2000/svg">
<g clip-path="url(#clip0_18_36)">
<path d="M7.32467 1.52265C6.68173 1.38349 6.01955 1.37225 5.37594 1.48955C4.73232 1.60685 4.11988 1.8504 3.57358 2.2063C2.47026 2.92506 1.70332 4.0578 1.44147 5.35532C1.17962 6.65285 1.44431 8.00887 2.17731 9.12507C2.91031 10.2413 4.05157 11.0262 5.35004 11.3073C6.64851 11.5883 7.99782 11.3424 9.10113 10.6236C10.2044 9.90486 10.9714 8.77212 11.2332 7.4746C11.4951 6.17708 11.2304 4.82106 10.4974 3.70485C9.7644 2.58864 8.62313 1.80368 7.32467 1.52265Z" fill="#FF6C37"/>
<path d="M4.93462 6.61179C4.93623 6.61591 4.93922 6.61935 4.94308 6.62152C4.94693 6.62368 4.9514 6.62443 4.95571 6.62363L5.76504 6.52003L5.45428 6.15118L4.94256 6.58832C4.93859 6.59054 4.9356 6.59416 4.93413 6.59848C4.93267 6.6028 4.93285 6.60754 4.93462 6.61179ZM8.91145 3.50637C8.80029 3.49682 8.68875 3.51237 8.58508 3.55187C8.48141 3.59137 8.38824 3.65382 8.31243 3.73461C8.23663 3.8154 8.18013 3.91247 8.14709 4.01867C8.11406 4.12486 8.10533 4.23748 8.12156 4.34821C8.13778 4.45894 8.17855 4.56497 8.24085 4.65847C8.30315 4.75198 8.38539 4.83058 8.48152 4.88847C8.57764 4.94637 8.6852 4.98209 8.79626 4.993C8.90732 5.00391 9.01905 4.98974 9.12322 4.95152L8.65397 4.40221C8.64859 4.39593 8.64449 4.38866 8.6419 4.38082C8.6393 4.37298 8.63827 4.36473 8.63885 4.35654C8.63944 4.34835 8.64163 4.34037 8.6453 4.33307C8.64898 4.32577 8.65406 4.31929 8.66026 4.314L9.36741 3.71049C9.24252 3.59238 9.08155 3.52053 8.91145 3.50637Z" fill="black"/>
<path d="M9.45192 3.80367L8.78925 4.36772L9.23971 4.89502C9.32953 4.84209 9.407 4.77069 9.4671 4.68544C9.5272 4.60018 9.56859 4.50298 9.58859 4.40011C9.6086 4.29724 9.60677 4.19099 9.58322 4.08825C9.55968 3.98551 9.51495 3.88856 9.45192 3.80367ZM8.13275 4.83633L8.12186 4.83539C8.10904 4.83405 8.09613 4.834 8.08334 4.83522L8.07867 4.83482C8.06467 4.83681 8.05084 4.83981 8.0373 4.84381L8.02638 4.84758C8.01603 4.85089 8.00599 4.85506 7.99636 4.86005L7.98495 4.86629C7.97216 4.8736 7.96003 4.882 7.9487 4.8914L5.98319 6.57105L6.19425 6.81812L8.25887 5.27744C8.27051 5.26878 8.28128 5.25899 8.29102 5.24822L8.30021 5.23803C8.31679 5.21685 8.33009 5.19325 8.33966 5.16803C8.34008 5.16211 8.34393 5.15648 8.34591 5.15069C8.34926 5.13856 8.35181 5.1262 8.35356 5.11371L8.35665 5.07039C8.35731 5.06104 8.35751 5.05823 8.35545 5.05209C8.34958 5.00421 8.3297 4.95895 8.29831 4.92203C8.26693 4.88512 8.22546 4.8582 8.17915 4.8447L8.16981 4.8439C8.15764 4.84049 8.14526 4.83796 8.13275 4.83633ZM5.54619 6.07031L5.89618 6.47765L7.86732 4.79378C7.93128 4.74031 8.01172 4.71052 8.09574 4.70959C7.78816 4.43227 7.42886 4.46728 5.54619 6.07031ZM8.3571 5.35833L8.33313 5.37822L6.26858 6.91796L6.57536 7.27674C7.44953 6.57154 8.22891 5.89521 8.3571 5.35833ZM3.22606 8.94042C3.22687 8.94399 3.22873 8.94725 3.2314 8.94978C3.23407 8.9523 3.23742 8.95397 3.24103 8.95456L4.08373 9.0859L3.64282 8.56976L3.23153 8.92082C3.22885 8.9232 3.22692 8.92631 3.22595 8.92978C3.22498 8.93325 3.22502 8.93694 3.22606 8.94042ZM3.73784 8.48917L4.20276 9.0334C4.20829 9.04021 4.21597 9.04495 4.2245 9.04682C4.23303 9.0487 4.2419 9.04759 4.24964 9.04369C4.25764 9.04048 4.26424 9.03458 4.26833 9.02698C4.27241 9.01938 4.27372 9.01056 4.27203 9.00202L4.21364 8.63478C4.20983 8.61098 4.21402 8.58669 4.22555 8.56576C4.23709 8.54483 4.25531 8.52844 4.27733 8.5192C5.18673 8.15447 5.92679 7.76172 6.47873 7.35344L6.15491 6.97437L5.39617 7.07135L3.73784 8.48917ZM6.05534 6.85951L5.88158 6.6561L5.60408 6.89257C5.60208 6.89464 5.60086 6.89737 5.60066 6.90027C5.60045 6.90317 5.60126 6.90607 5.60295 6.90846C5.60393 6.91122 5.60588 6.91354 5.60844 6.91498C5.61099 6.91641 5.61397 6.91686 5.6168 6.91624L6.05532 6.85982L6.05534 6.85951Z" fill="black"/>
<path d="M9.44069 4.20728C9.43867 4.19925 9.43498 4.19173 9.42984 4.18521C9.42471 4.17869 9.41827 4.17332 9.41093 4.16947C9.4036 4.16562 9.39556 4.16337 9.38734 4.16287C9.37912 4.16238 9.37091 4.16365 9.36327 4.1666C9.35563 4.16955 9.34873 4.17411 9.34303 4.17998C9.33733 4.18585 9.33297 4.19289 9.33024 4.20063C9.3275 4.20837 9.32645 4.21663 9.32717 4.22486C9.32789 4.23308 9.33035 4.24109 9.33438 4.24833C9.34709 4.27965 9.35053 4.31386 9.34429 4.34683C9.33805 4.37979 9.32239 4.4101 9.29921 4.4341C9.28858 4.44505 9.28279 4.45983 9.2831 4.47521C9.28342 4.49059 9.28981 4.5053 9.30088 4.5161C9.31195 4.52691 9.32678 4.53293 9.34212 4.53283C9.35746 4.53274 9.37205 4.52654 9.38268 4.5156C9.42097 4.47572 9.44681 4.42545 9.45709 4.37081C9.46738 4.31618 9.46168 4.25951 9.44067 4.20759L9.44069 4.20728Z" fill="#FF6C37"/>
</g>
<defs>
<clipPath id="clip0_18_36">
<rect width="10.0614" height="9.9428" fill="white" transform="matrix(0.990249 0.085048 -0.0715416 1.00321 1.71133 1)"/>
</clipPath>
</defs>
</svg>
